<svg xmlns="http://www.w3.org/2000/svg" viewBox="0 11.44342041015625 141.6818084716797 38.30657958984375" data-asc="0.9" width="141.6818084716797" height="38.30657958984375"><defs/><g fill="#ffffff"><g transform="translate(0, 0)"><path d="M1.55 23.85Q1.25 23.85 0.90 23.60Q0 22.75 0 21.45Q0 19.90 1.33 18.22Q2.65 16.55 5.25 15.55Q8.20 14.40 11.65 13.63Q15.10 12.85 18.72 12.48Q22.35 12.10 25.70 12.10Q26.95 12.10 28.15 12.15Q29.35 12.20 30.45 12.30Q37.80 13 41.68 15.10Q45.55 17.20 45.55 19.50Q45.55 20.45 44.90 21.30Q44.60 21.70 44.02 22.07Q43.45 22.45 43.10 22.45Q42.80 22.45 42.80 22.15Q42.80 21.80 43.30 21Q43.90 20.10 43.90 19.35Q43.90 17.90 42.08 17.07Q40.25 16.25 37.33 15.92Q34.40 15.60 31.05 15.60Q28.75 15.60 26.40 15.72Q24.05 15.85 22 16.05Q21.05 16.15 19.13 16.40Q17.20 16.65 14.80 17.02Q12.40 17.40 9.95 17.92Q7.50 18.45 5.45 19.10Q3.40 19.75 2.13 20.52Q0.85 21.30 0.85 22.25Q0.85 22.90 1.60 23.60Q1.70 23.70 1.70 23.75Q1.70 23.85 1.55 23.85M15.30 49.05Q12.70 48.85 11.75 47.40Q10.80 45.95 10.80 44Q10.80 42.35 11.25 40.60Q11.70 38.85 12.20 37.40Q12.70 36 13.53 34.45Q14.35 32.90 15.78 30.75Q17.20 28.60 19.50 25.35Q21.80 22.10 25.20 17.30Q25.80 16.55 26.25 16.55Q26.55 16.55 26.68 16.77Q26.80 17 26.70 17.20Q22 24.15 19.47 29.13Q16.95 34.10 15.75 37.60Q15.50 38.30 15.13 39.58Q14.75 40.85 14.45 42.33Q14.15 43.80 14.15 45.10Q14.15 46.50 14.65 47.50Q15.15 48.50 16.40 48.50Q17.15 48.50 17.80 48Q18.05 47.85 18.10 47.85Q18.20 47.85 18.20 47.95Q18.20 48.10 17.90 48.35Q16.95 49.20 15.30 49.05ZM30.05 45.05Q27.90 45.05 27.15 44.23Q26.40 43.40 26.40 42.40Q26.40 41.10 27.40 39.65Q28 38.80 28.75 37.73Q29.50 36.65 30.15 35.70Q30.80 34.75 31.05 34.35Q31.40 33.85 31.48 33.67Q31.55 33.50 31.55 33.30Q31.55 33 31.18 32.73Q30.80 32.45 29.95 32.45Q29.70 32.45 29.53 32.48Q29.35 32.50 29.15 32.50Q28.75 32.50 28.70 32.45L28.55 32.65Q27.15 34.50 25.55 36.27Q23.95 38.05 22.05 39.55Q21.85 39.70 21.75 39.70Q21.55 39.70 21.55 39.50Q21.55 39.10 22.15 38.60Q23.70 37.30 25.20 35.67Q26.70 34.05 27.90 32.25Q27.45 31.95 27.45 31.05Q27.45 29.70 28.30 28.15Q28.90 27.10 29.63 26.57Q30.35 26.05 30.90 26.05Q31.95 26.05 31.95 27.30Q31.95 28.10 31.35 29.30Q31.10 29.90 30.38 30.82Q29.65 31.75 28.95 32.15Q30 31.80 31.63 31.67Q33.25 31.55 34.35 31.55Q35 31.55 35.95 31.92Q36.90 32.30 36.90 33.25Q36.90 33.90 36.30 34.65Q36.15 34.85 35.50 35.60Q34.85 36.35 34.08 37.40Q33.30 38.45 32.65 39.50Q32 40.45 31.63 41.25Q31.25 42.05 31.25 42.60Q31.25 43.40 32.15 43.40Q33.20 43.40 34.95 42.40Q36.70 41.40 38.73 39.83Q40.75 38.25 42.45 36.55Q42.65 36.35 42.80 36.35Q43 36.35 43 36.60Q43 36.90 42.75 37.15Q41 38.90 38.88 40.73Q36.75 42.55 34.48 43.80Q32.20 45.05 30.05 45.05ZM43.35 45.05Q41.80 45.05 40.95 44.08Q40.10 43.10 40.10 41.55Q40.10 40.10 40.88 38.35Q41.65 36.60 43.35 34.80Q45.10 32.90 47.70 31.73Q50.30 30.55 52.65 30.55Q54.55 30.55 55.90 31.38Q57.25 32.20 57.70 33.45Q58.25 33.45 59.08 33.75Q59.90 34.05 59.90 34.85Q59.90 35.40 59.35 36.10Q59 36.60 58.13 37.60Q57.25 38.60 56.50 39.75Q55.90 40.65 55.55 41.42Q55.20 42.20 55.20 42.75Q55.20 43.50 55.95 43.50Q56.80 43.50 58.50 42.55Q60.35 41.50 62.05 40.15Q63.75 38.80 64.70 38Q64.95 37.80 65.05 37.80Q65.25 37.80 65.25 38.05Q65.25 38.35 65 38.60Q64.55 39 63.25 40.10Q61.95 41.20 60.28 42.40Q58.60 43.60 57 44.35Q56.20 44.70 55.53 44.88Q54.85 45.05 54.30 45.05Q52.95 45.05 52.25 44.27Q51.55 43.50 51.55 42.25Q51.55 41.75 51.70 41.20Q51.85 40.65 52.05 40.10L52.40 39.25Q51.10 40.85 49.80 41.92Q48.50 43 47.20 43.80Q46.10 44.45 45.13 44.75Q44.15 45.05 43.35 45.05M44.90 43.75Q45.80 43.75 47.50 42.67Q49.20 41.60 51.45 39.35Q51.75 39.05 52.58 38.27Q53.40 37.50 54.35 36.52Q55.30 35.55 55.98 34.58Q56.65 33.60 56.65 32.95Q56.65 32 55 32Q53.55 32 51.53 33.13Q49.50 34.25 47.65 36.45Q45.75 38.70 44.88 40.33Q44 41.95 44 42.80Q44 43.75 44.90 43.75ZM78.50 49.40Q77.70 48.70 77.33 47.63Q76.95 46.55 76.95 45.20Q76.95 43.95 77.23 42.55Q77.50 41.15 77.95 39.60Q77 40.80 75.83 42.05Q74.65 43.30 73.60 44.20Q71.50 45.90 69.05 45.90Q67.20 45.90 65.90 44.73Q64.60 43.55 64.60 41.05Q64.60 40.40 64.73 39.80Q64.85 39.20 65.05 38.60Q64.75 38.85 64.48 39.10Q64.20 39.35 63.95 39.55Q63.75 39.70 63.55 39.70Q63.30 39.70 63.30 39.45Q63.30 39.15 63.80 38.75Q64.45 38.20 65.28 37.25Q66.10 36.30 67.10 35.20Q68.85 33.25 71.38 32.05Q73.90 30.85 76.35 30.85Q78.45 30.85 79.43 31.60Q80.40 32.35 80.40 33.40Q81.65 30.75 83.03 28.32Q84.40 25.90 85.63 24.05Q86.85 22.20 87.65 21.30Q88.20 20.65 89.03 20.35Q89.85 20.05 90.70 20.05Q91.55 20.05 92.35 20.30Q93.15 20.55 93.75 21.10Q93.25 21.40 92.18 22.52Q91.10 23.65 89.73 25.30Q88.35 26.95 86.88 28.85Q85.40 30.75 84.10 32.65Q82.55 34.90 81.18 37.50Q79.80 40.10 78.95 42.52Q78.10 44.95 78.10 46.80Q78.10 48.30 78.75 49.10Q78.90 49.30 78.75 49.38Q78.60 49.45 78.50 49.40M70.60 44.20Q71.50 44.20 73 43.27Q74.50 42.35 76.70 40.10Q77.40 39.40 77.83 38.88Q78.25 38.35 78.55 37.85Q78.80 37.15 79.05 36.50Q79.30 35.85 79.60 35.20Q79.30 35.40 79.15 35.40Q78.75 35.40 78.75 34.95Q78.75 34.75 78.90 34.45Q79.40 33.60 79.40 32.95Q79.40 31.90 78.20 31.90Q77.55 31.90 76.45 32.30Q75.20 32.80 73.88 33.83Q72.55 34.85 71.43 36.23Q70.30 37.60 69.63 39.05Q68.95 40.50 68.95 41.80Q68.95 42.75 69.33 43.48Q69.70 44.20 70.60 44.20ZM89.55 45.50Q87.35 45.50 85.88 44.42Q84.40 43.35 84.40 41.30Q84.40 39.10 85.45 37.20Q86.50 35.30 88.25 33.88Q90 32.45 92.08 31.65Q94.15 30.85 96.20 30.85Q98.25 30.85 99.25 31.57Q100.25 32.30 100.25 33.35Q100.25 34.35 99.33 35.48Q98.40 36.60 96.65 37.45Q95.55 37.95 94.13 38.33Q92.70 38.70 91.65 38.70Q90.85 38.70 90.85 38.45Q90.85 38.25 91.55 38.25Q92.20 38.25 93.58 37.88Q94.95 37.50 96.25 36.85Q97.70 36.05 98.30 35.25Q98.90 34.45 98.90 33.80Q98.90 33.20 98.43 32.80Q97.95 32.40 97.10 32.40Q96.30 32.40 95.30 32.85Q93.85 33.50 92.33 34.98Q90.80 36.45 89.80 38.20Q88.80 39.95 88.80 41.55Q88.80 42.65 89.42 43.40Q90.05 44.15 91.30 44.15Q92.60 44.15 94.30 43.33Q96 42.50 97.75 41.27Q99.50 40.05 101 38.80Q102.50 37.55 103.40 36.70Q103.70 36.40 103.85 36.40Q104 36.40 104 36.65Q104 37 103.70 37.25Q101.80 39 99.58 40.90Q97.35 42.80 94.83 44.13Q92.30 45.45 89.55 45.50ZM94.75 49.75Q94.60 49.75 94.60 49.55Q94.60 49.20 94.95 48.70Q97.20 45.65 100.65 41.45Q104.10 37.25 108.25 32.80Q107.30 30.30 106.85 27.68Q106.40 25.05 106.40 22.75Q106.40 20.95 106.67 19.47Q106.95 18 107.45 17.10Q107.70 16.65 108.45 16.20Q109.20 15.75 110.10 15.47Q111 15.20 111.60 15.20Q112.40 15.20 112.40 15.65Q112.40 15.85 112.15 16.25Q111.50 17.30 111.17 18.95Q110.85 20.60 110.85 22.60Q110.85 25.75 111.55 29.35Q115.10 25.75 118.93 22.50Q122.75 19.25 126.63 16.72Q130.50 14.20 134.28 12.77Q138.05 11.35 141.50 11.45Q141.70 11.45 141.68 11.65Q141.65 11.85 141.45 11.85Q139.35 11.80 136.47 13.02Q133.60 14.25 130.25 16.40Q126.90 18.55 123.35 21.40Q120.50 23.65 117.63 26.18Q114.75 28.70 112 31.35Q112.80 34.45 113.98 37.30Q115.15 40.15 116.53 42.15Q117.90 44.15 119.20 44.90Q120.35 45.50 121.55 45.50Q122.30 45.50 122.95 45.25Q123.60 45 124 44.50Q124.10 44.40 124.20 44.40Q124.30 44.40 124.38 44.52Q124.45 44.65 124.35 44.80Q123.60 45.75 122.70 45.98Q121.80 46.20 120.65 46.20Q118.45 46.20 116.28 44.58Q114.10 42.95 112.20 40.25Q110.30 37.55 108.90 34.40Q105.90 37.35 103.28 40.15Q100.65 42.95 98.67 45.25Q96.70 47.55 95.55 49.10Q95.10 49.75 94.75 49.75Z"/></g></g></svg>