<svg xmlns="http://www.w3.org/2000/svg" xmlns:xlink="http://www.w3.org/1999/xlink" width="378" zoomAndPan="magnify" viewBox="0 0 283.5 283.500005" height="378" preserveAspectRatio="xMidYMid meet" version="1.0"><defs><g/><clipPath id="cd10d476c2"><path d="M 0.351562 103 L 192 103 L 192 202 L 0.351562 202 Z M 0.351562 103 " clip-rule="nonzero"/></clipPath><clipPath id="a32a6eed6f"><path d="M 192 126 L 208.511719 126 L 208.511719 140 L 192 140 Z M 192 126 " clip-rule="nonzero"/></clipPath><clipPath id="5040cd41cf"><rect x="0" width="209" y="0" height="240"/></clipPath></defs><g transform="matrix(1, 0, 0, 1, 37, 4)"><g clip-path="url(#5040cd41cf)"><path fill="#ff3131" d="M 35.707031 74.433594 C 36.082031 74.433594 36.417969 74.324219 36.722656 74.101562 L 88.238281 36.714844 L 102.558594 50.042969 C 102.859375 50.324219 103.210938 50.476562 103.617188 50.503906 C 104.027344 50.535156 104.398438 50.433594 104.730469 50.203125 L 165.6875 8.027344 L 160.703125 18.667969 C 160.605469 18.878906 160.550781 19.097656 160.539062 19.328125 C 160.527344 19.558594 160.5625 19.78125 160.640625 20 C 160.71875 20.21875 160.835938 20.410156 160.992188 20.582031 C 161.144531 20.753906 161.328125 20.886719 161.535156 20.984375 C 161.746094 21.082031 161.964844 21.136719 162.195312 21.148438 C 162.425781 21.15625 162.652344 21.121094 162.867188 21.042969 C 163.085938 20.964844 163.277344 20.847656 163.449219 20.691406 C 163.617188 20.535156 163.75 20.351562 163.847656 20.144531 L 171.5625 3.675781 C 171.621094 3.546875 171.664062 3.410156 171.691406 3.273438 L 171.699219 3.242188 C 171.730469 3.046875 171.726562 2.851562 171.691406 2.65625 C 171.683594 2.605469 171.671875 2.5625 171.660156 2.511719 C 171.613281 2.3125 171.53125 2.125 171.417969 1.953125 L 171.417969 1.949219 L 171.414062 1.945312 C 171.289062 1.773438 171.140625 1.628906 170.964844 1.511719 C 170.929688 1.492188 170.898438 1.46875 170.867188 1.449219 C 170.550781 1.257812 170.210938 1.175781 169.839844 1.207031 L 151.722656 2.761719 C 151.492188 2.78125 151.277344 2.847656 151.070312 2.953125 C 150.867188 3.058594 150.691406 3.199219 150.542969 3.375 C 150.394531 3.550781 150.289062 3.75 150.21875 3.96875 C 150.148438 4.1875 150.125 4.414062 150.144531 4.640625 C 150.164062 4.871094 150.226562 5.085938 150.332031 5.292969 C 150.4375 5.496094 150.578125 5.671875 150.753906 5.820312 C 150.929688 5.96875 151.128906 6.078125 151.347656 6.148438 C 151.566406 6.21875 151.789062 6.242188 152.019531 6.222656 L 163.628906 5.226562 L 103.90625 46.550781 L 89.558594 33.199219 C 89.253906 32.914062 88.898438 32.761719 88.480469 32.734375 C 88.066406 32.710938 87.691406 32.820312 87.355469 33.0625 L 34.683594 71.292969 C 34.378906 71.511719 34.167969 71.800781 34.050781 72.160156 C 33.933594 72.519531 33.933594 72.875 34.050781 73.234375 C 34.167969 73.59375 34.378906 73.882812 34.683594 74.101562 C 34.988281 74.324219 35.328125 74.433594 35.707031 74.433594 Z M 35.707031 74.433594 " fill-opacity="1" fill-rule="nonzero"/><path fill="#ff3131" d="M 34.25 125.285156 L 48.996094 127.054688 L 48.996094 90.257812 L 22.441406 90.257812 L 22.441406 124.796875 C 26.390625 124.664062 30.328125 124.824219 34.25 125.285156 Z M 34.25 125.285156 " fill-opacity="1" fill-rule="nonzero"/><path fill="#ff3131" d="M 84.246094 116.53125 L 84.246094 70.597656 L 57.710938 70.597656 L 57.710938 132.351562 C 68.113281 130.425781 76.03125 123.753906 84.246094 116.53125 Z M 84.246094 116.53125 " fill-opacity="1" fill-rule="nonzero"/><path fill="#ff3131" d="M 93.015625 108.996094 C 100.398438 103.003906 108.820312 97.550781 119.550781 95.570312 L 119.550781 80.097656 L 93.015625 80.097656 Z M 93.015625 108.996094 " fill-opacity="1" fill-rule="nonzero"/><path fill="#ff3131" d="M 154.820312 99.652344 L 154.820312 57.019531 L 128.320312 57.019531 L 128.320312 94.738281 C 137.492188 94.558594 146.324219 96.195312 154.820312 99.652344 Z M 154.820312 99.652344 " fill-opacity="1" fill-rule="nonzero"/><path fill="#ff3131" d="M 163.589844 103.925781 C 166.980469 105.867188 170.1875 108.070312 173.210938 110.539062 C 173.859375 110.320312 174.519531 110.140625 175.191406 110.003906 C 180.089844 109.066406 185.261719 107.847656 186.53125 105.800781 L 190.125 100 L 190.125 36.441406 L 163.589844 36.441406 Z M 163.589844 103.925781 " fill-opacity="1" fill-rule="nonzero"/><path fill="#ff3131" d="M 126.292969 186.769531 C 126.132812 186.898438 125.953125 186.996094 125.757812 187.0625 C 125.5625 187.128906 125.363281 187.15625 125.15625 187.152344 C 124.949219 187.144531 124.75 187.101562 124.5625 187.027344 C 124.371094 186.949219 124.199219 186.84375 124.042969 186.703125 C 122.371094 185.308594 120.507812 184.25 118.453125 183.523438 L 114.21875 193.964844 C 119.789062 193.878906 127.210938 193.253906 129.195312 191.648438 C 131.617188 189.695312 135.496094 184.085938 137.5625 180.894531 C 135.089844 179.089844 132.457031 177.558594 129.660156 176.300781 C 129.839844 177.246094 129.894531 178.195312 129.835938 179.15625 C 129.773438 180.113281 129.597656 181.050781 129.304688 181.964844 C 129.007812 182.878906 128.605469 183.742188 128.097656 184.554688 C 127.585938 185.367188 126.984375 186.109375 126.292969 186.769531 Z M 126.292969 186.769531 " fill-opacity="1" fill-rule="nonzero"/><path fill="#ff3131" d="M 61.246094 183.480469 C 61.382812 183.445312 73.351562 180.132812 79.21875 174.894531 C 75.179688 174.101562 71.203125 173.058594 67.289062 171.769531 C 64.945312 173.863281 62.34375 175.566406 59.488281 176.882812 C 55.976562 178.394531 52.339844 179.492188 48.578125 180.175781 C 49.847656 182.277344 51.828125 185.699219 53.828125 189.695312 C 55.695312 193.511719 57.039062 197.507812 57.851562 201.679688 L 73.449219 201.679688 C 73.402344 199.515625 72.703125 197.585938 71.347656 195.890625 C 70.460938 194.996094 69.429688 194.328125 68.25 193.878906 C 67.070312 193.429688 65.855469 193.246094 64.597656 193.324219 C 64.238281 193.320312 63.914062 193.214844 63.621094 193.007812 C 63.328125 192.804688 63.121094 192.535156 62.992188 192.203125 C 62.164062 190.070312 61.21875 187.992188 60.167969 185.964844 C 60.042969 185.734375 59.976562 185.484375 59.96875 185.222656 C 59.957031 184.957031 60.003906 184.707031 60.109375 184.464844 C 60.214844 184.222656 60.367188 184.015625 60.566406 183.84375 C 60.765625 183.671875 60.992188 183.550781 61.246094 183.480469 Z M 61.246094 183.480469 " fill-opacity="1" fill-rule="nonzero"/><g clip-path="url(#cd10d476c2)"><path fill="#ff3131" d="M 176.820312 118.535156 C 170.753906 119.695312 170.851562 127.433594 170.859375 127.761719 C 170.867188 128.128906 170.769531 128.464844 170.566406 128.769531 C 170.363281 129.074219 170.089844 129.289062 169.746094 129.421875 C 169.40625 129.554688 169.054688 129.574219 168.699219 129.488281 C 168.34375 129.398438 168.046875 129.214844 167.808594 128.9375 C 162.410156 122.671875 157.085938 123.117188 154.847656 123.6875 C 154.925781 124.324219 155.054688 124.945312 155.238281 125.558594 C 155.421875 126.171875 155.65625 126.765625 155.941406 127.335938 C 156.226562 127.910156 156.558594 128.453125 156.9375 128.96875 C 157.3125 129.488281 157.734375 129.96875 158.191406 130.410156 C 158.652344 130.855469 159.144531 131.257812 159.675781 131.621094 C 160.203125 131.980469 160.757812 132.292969 161.339844 132.558594 C 161.921875 132.824219 162.523438 133.039062 163.140625 133.203125 C 163.757812 133.367188 164.386719 133.476562 165.023438 133.53125 C 165.246094 133.550781 165.457031 133.609375 165.660156 133.710938 C 165.859375 133.8125 166.03125 133.945312 166.179688 134.113281 C 166.328125 134.28125 166.441406 134.46875 166.515625 134.683594 C 166.589844 134.894531 166.625 135.109375 166.613281 135.332031 C 166.605469 135.558594 166.554688 135.769531 166.460938 135.976562 C 166.371094 136.179688 166.242188 136.359375 166.082031 136.515625 C 165.921875 136.667969 165.738281 136.789062 165.527344 136.871094 C 165.320312 136.957031 165.105469 137 164.882812 137 C 164.835938 137 164.785156 136.996094 164.734375 136.992188 C 163.835938 136.917969 162.949219 136.761719 162.074219 136.523438 C 161.203125 136.285156 160.359375 135.96875 159.546875 135.574219 C 158.730469 135.179688 157.960938 134.714844 157.234375 134.175781 C 156.503906 133.640625 155.832031 133.039062 155.214844 132.378906 C 154.597656 131.71875 154.046875 131.003906 153.5625 130.242188 C 153.078125 129.480469 152.664062 128.679688 152.328125 127.839844 C 151.992188 127 151.734375 126.136719 151.554688 125.25 C 151.378906 124.363281 151.28125 123.46875 151.269531 122.5625 C 151.253906 122.21875 151.335938 121.894531 151.515625 121.597656 C 151.691406 121.300781 151.9375 121.078125 152.25 120.925781 C 152.332031 120.886719 159.914062 117.351562 167.796875 124.03125 C 168.191406 122.28125 168.898438 120.664062 169.921875 119.183594 C 165.691406 115.3125 149.171875 101.863281 125.4375 103.558594 C 110.914062 104.597656 101.292969 113.078125 91.109375 122.054688 C 81.898438 130.175781 72.371094 138.578125 58.9375 140.972656 C 55.683594 141.519531 52.546875 142.457031 49.523438 143.789062 C 46.195312 144.089844 33.238281 145.539062 23.292969 149.875 C 18.101562 152.132812 10.859375 151.609375 6.8125 148.710938 C 6.316406 148.402344 5.875 148.03125 5.480469 147.597656 C 5.085938 147.164062 4.757812 146.6875 4.496094 146.167969 C 4.234375 145.644531 4.046875 145.097656 3.9375 144.523438 C 3.828125 143.949219 3.796875 143.371094 3.84375 142.789062 C 3.917969 141.78125 4.199219 140.835938 4.683594 139.953125 C 5.167969 139.070312 5.816406 138.324219 6.621094 137.71875 C 8.460938 136.324219 10.503906 135.363281 12.753906 134.835938 C 14.070312 138.359375 17.421875 143.066406 23.519531 142.980469 C 31.265625 142.859375 34.492188 136.050781 35.121094 132.472656 C 35.207031 131.984375 35.101562 131.539062 34.808594 131.136719 C 34.511719 130.738281 34.117188 130.511719 33.625 130.457031 C 26.964844 129.691406 20.328125 129.886719 13.726562 131.050781 C 13.671875 131.066406 13.621094 131.066406 13.570312 131.085938 C 13.515625 131.101562 13.480469 131.101562 13.429688 131.117188 C 10.132812 131.722656 7.132812 133.019531 4.433594 135.007812 C 3.265625 135.917969 2.328125 137.023438 1.621094 138.324219 C 0.917969 139.628906 0.507812 141.015625 0.386719 142.492188 C 0.316406 143.375 0.363281 144.25 0.523438 145.117188 C 0.6875 145.984375 0.964844 146.816406 1.347656 147.609375 C 1.734375 148.402344 2.21875 149.132812 2.800781 149.796875 C 3.386719 150.460938 4.042969 151.035156 4.78125 151.523438 C 6.457031 152.621094 8.261719 153.449219 10.1875 154 C 12.117188 154.550781 14.082031 154.800781 16.085938 154.753906 C 19.070312 154.777344 21.933594 154.210938 24.683594 153.050781 C 30.128906 150.851562 35.757812 149.292969 41.5625 148.378906 C 41.964844 148.308594 42.34375 148.25 42.726562 148.1875 C 39.472656 151.386719 37.046875 155.128906 35.453125 159.40625 C 34.78125 161.125 33.941406 162.761719 32.9375 164.308594 C 29.296875 169.375 19.726562 178.0625 17.640625 179.933594 L 11.800781 201.679688 L 28.046875 201.679688 C 27.445312 194.566406 23.160156 194.023438 22.964844 194 C 22.828125 193.988281 22.691406 193.957031 22.5625 193.910156 C 22.429688 193.863281 22.304688 193.800781 22.191406 193.726562 C 22.074219 193.648438 21.96875 193.5625 21.871094 193.460938 C 21.777344 193.359375 21.695312 193.246094 21.625 193.128906 C 21.554688 193.007812 21.503906 192.878906 21.464844 192.746094 C 21.425781 192.613281 21.402344 192.476562 21.398438 192.335938 C 21.390625 192.195312 21.402344 192.058594 21.429688 191.921875 C 21.453125 191.785156 21.496094 191.65625 21.554688 191.527344 C 22.332031 189.914062 23.257812 188.394531 24.34375 186.96875 C 25.425781 185.542969 26.644531 184.242188 27.992188 183.066406 C 29.339844 181.886719 30.792969 180.855469 32.351562 179.972656 C 33.910156 179.089844 35.539062 178.375 37.242188 177.824219 C 37.40625 177.777344 37.570312 177.757812 37.738281 177.761719 C 44.785156 177.722656 51.566406 176.371094 58.089844 173.703125 C 67.582031 169.519531 74.539062 157.820312 74.609375 157.699219 C 74.726562 157.503906 74.875 157.335938 75.058594 157.195312 C 75.242188 157.058594 75.445312 156.960938 75.667969 156.902344 C 75.890625 156.84375 76.117188 156.832031 76.34375 156.863281 C 76.574219 156.894531 76.785156 156.96875 76.984375 157.085938 C 77.183594 157.203125 77.351562 157.351562 77.492188 157.535156 C 77.628906 157.71875 77.726562 157.921875 77.785156 158.144531 C 77.84375 158.367188 77.855469 158.59375 77.824219 158.820312 C 77.792969 159.050781 77.71875 159.261719 77.601562 159.460938 C 75.472656 162.917969 72.996094 166.109375 70.175781 169.03125 C 77.253906 171.160156 98.972656 176.625 120.117188 171.183594 C 108.207031 163.308594 106.378906 155.058594 106.292969 154.640625 C 106.25 154.414062 106.246094 154.1875 106.289062 153.960938 C 106.332031 153.738281 106.417969 153.527344 106.546875 153.335938 C 106.671875 153.144531 106.832031 152.984375 107.019531 152.855469 C 107.210938 152.722656 107.417969 152.636719 107.644531 152.589844 C 107.871094 152.542969 108.097656 152.542969 108.320312 152.585938 C 108.546875 152.628906 108.757812 152.714844 108.949219 152.839844 C 109.140625 152.964844 109.300781 153.125 109.433594 153.316406 C 109.5625 153.503906 109.648438 153.714844 109.695312 153.9375 C 109.726562 154.078125 112.300781 164.929688 130.894531 173.046875 C 134.4375 174.628906 137.738281 176.605469 140.808594 178.976562 L 140.820312 178.980469 C 140.828125 178.988281 140.835938 178.996094 140.84375 179.003906 C 148.792969 185.34375 155.328125 192.902344 160.453125 201.679688 L 173.949219 201.679688 C 173.851562 201.019531 173.695312 200.375 173.480469 199.742188 C 173.265625 199.109375 172.992188 198.503906 172.664062 197.921875 C 172.335938 197.339844 171.957031 196.792969 171.527344 196.28125 C 171.097656 195.769531 170.625 195.300781 170.109375 194.878906 C 169.59375 194.453125 169.042969 194.078125 168.460938 193.757812 C 167.875 193.433594 167.265625 193.167969 166.632812 192.957031 C 165.996094 192.75 165.347656 192.597656 164.6875 192.507812 C 164.023438 192.417969 163.359375 192.390625 162.695312 192.421875 C 162.371094 192.421875 162.070312 192.339844 161.796875 192.171875 C 161.519531 192.003906 161.308594 191.78125 161.15625 191.496094 C 161.066406 191.320312 152 174.101562 147.582031 166.90625 C 146.535156 165.183594 145.714844 163.363281 145.113281 161.441406 L 145.113281 161.4375 C 144.601562 159.847656 144.214844 158.253906 143.824219 156.617188 C 142.921875 151.710938 141.066406 147.195312 138.253906 143.078125 C 138.121094 142.886719 138.027344 142.683594 137.976562 142.457031 C 137.925781 142.230469 137.921875 142.003906 137.960938 141.777344 C 138 141.550781 138.082031 141.339844 138.203125 141.144531 C 138.328125 140.949219 138.484375 140.785156 138.671875 140.652344 C 138.859375 140.519531 139.066406 140.429688 139.292969 140.378906 C 139.519531 140.328125 139.746094 140.324219 139.972656 140.363281 C 140.199219 140.402344 140.410156 140.484375 140.605469 140.609375 C 140.800781 140.734375 140.964844 140.890625 141.09375 141.078125 C 144.164062 145.5625 146.199219 150.472656 147.203125 155.8125 C 147.359375 156.464844 147.515625 157.105469 147.675781 157.746094 C 149.496094 156.027344 151.195312 154.199219 152.769531 152.257812 C 151.929688 149.875 151.429688 147.421875 151.273438 144.898438 C 151.257812 144.667969 151.285156 144.445312 151.359375 144.226562 C 151.429688 144.007812 151.542969 143.8125 151.695312 143.636719 C 151.847656 143.464844 152.023438 143.324219 152.230469 143.222656 C 152.4375 143.121094 152.65625 143.0625 152.886719 143.042969 C 153.113281 143.027344 153.339844 143.058594 153.558594 143.128906 C 153.777344 143.203125 153.972656 143.316406 154.144531 143.46875 C 154.320312 143.617188 154.457031 143.796875 154.5625 144.003906 C 154.664062 144.210938 154.722656 144.425781 154.738281 144.65625 C 155.667969 158.078125 165.25 160.644531 165.347656 160.667969 C 165.730469 160.765625 166.046875 160.972656 166.292969 161.285156 C 166.535156 161.597656 166.660156 161.957031 166.660156 162.351562 L 166.660156 166.882812 C 166.660156 167.214844 166.722656 167.527344 166.855469 167.828125 C 166.984375 168.132812 167.167969 168.394531 167.410156 168.617188 C 167.648438 168.84375 167.921875 169.011719 168.230469 169.121094 C 168.542969 169.234375 168.859375 169.277344 169.1875 169.257812 L 177.898438 168.703125 C 178.15625 168.6875 178.40625 168.628906 178.644531 168.53125 C 178.886719 168.433594 179.105469 168.296875 179.300781 168.128906 C 179.496094 167.960938 179.660156 167.761719 179.792969 167.539062 C 179.925781 167.316406 180.019531 167.078125 180.074219 166.824219 L 182.511719 155.304688 C 182.554688 155.113281 182.625 154.929688 182.730469 154.761719 C 184.804688 151.359375 190.007812 141.460938 189.183594 136.582031 C 188.34375 131.601562 183.996094 127.851562 182.714844 126.839844 C 182.289062 127.417969 182.003906 128.054688 181.859375 128.753906 C 181.71875 129.457031 181.726562 130.152344 181.894531 130.851562 C 181.933594 131.078125 181.925781 131.300781 181.875 131.527344 C 181.828125 131.753906 181.734375 131.957031 181.601562 132.148438 C 181.46875 132.335938 181.304688 132.492188 181.113281 132.613281 C 180.917969 132.738281 180.707031 132.820312 180.480469 132.859375 C 180.253906 132.898438 180.027344 132.894531 179.800781 132.84375 C 179.578125 132.792969 179.371094 132.699219 179.183594 132.566406 C 178.992188 132.433594 178.839844 132.273438 178.714844 132.078125 C 178.589844 131.882812 178.511719 131.671875 178.46875 131.445312 C 177.300781 124.71875 182.566406 122.082031 186.410156 120.152344 C 187.90625 119.5 189.289062 118.660156 190.558594 117.632812 C 191.152344 117 191.558594 116.265625 191.773438 115.429688 C 191.992188 114.589844 191.992188 113.75 191.777344 112.910156 C 188.203125 116.117188 182.667969 117.417969 176.820312 118.535156 Z M 175.273438 165.503906 C 175.054688 165.574219 174.828125 165.597656 174.601562 165.578125 C 174.371094 165.558594 174.152344 165.492188 173.949219 165.386719 C 173.746094 165.28125 173.570312 165.136719 173.421875 164.960938 C 173.273438 164.785156 173.164062 164.585938 173.097656 164.367188 L 172.695312 163.089844 C 172.625 162.871094 172.601562 162.644531 172.621094 162.417969 C 172.640625 162.1875 172.707031 161.96875 172.8125 161.765625 C 172.917969 161.5625 173.058594 161.382812 173.238281 161.238281 C 173.414062 161.089844 173.613281 160.980469 173.832031 160.910156 C 174.050781 160.84375 174.277344 160.816406 174.507812 160.839844 C 174.734375 160.859375 174.953125 160.921875 175.15625 161.03125 C 175.363281 161.136719 175.539062 161.277344 175.683594 161.457031 C 175.832031 161.632812 175.941406 161.832031 176.011719 162.050781 L 176.410156 163.328125 C 176.480469 163.546875 176.503906 163.769531 176.484375 164 C 176.460938 164.230469 176.398438 164.445312 176.292969 164.648438 C 176.1875 164.855469 176.042969 165.03125 175.867188 165.179688 C 175.691406 165.324219 175.492188 165.433594 175.273438 165.503906 Z M 177.265625 148.140625 C 177.148438 148.359375 176.972656 148.5 176.730469 148.566406 C 176.292969 148.683594 175.847656 148.742188 175.390625 148.742188 C 174.972656 148.765625 174.5625 148.722656 174.160156 148.613281 C 173.753906 148.5 173.378906 148.328125 173.035156 148.09375 C 172.6875 147.859375 172.386719 147.574219 172.136719 147.238281 C 171.882812 146.90625 171.691406 146.539062 171.558594 146.140625 C 170.707031 143.664062 172.875 141.722656 174.140625 141.039062 C 174.253906 140.980469 174.375 140.945312 174.503906 140.9375 C 174.632812 140.929688 174.753906 140.949219 174.875 140.996094 C 174.992188 141.046875 175.097656 141.117188 175.183594 141.210938 C 175.273438 141.304688 175.335938 141.410156 175.378906 141.53125 L 177.324219 147.460938 C 177.402344 147.695312 177.382812 147.921875 177.265625 148.140625 Z M 177.265625 148.140625 " fill-opacity="1" fill-rule="nonzero"/></g><g clip-path="url(#a32a6eed6f)"><path fill="#ff3131" d="M 192.109375 134.015625 C 192.324219 134.667969 192.492188 135.328125 192.609375 136 C 192.765625 137.046875 192.777344 138.097656 192.648438 139.144531 C 198.796875 138.675781 203.265625 136.75 205.910156 133.375 C 207.511719 131.246094 208.421875 128.855469 208.640625 126.203125 C 203.5625 131.917969 195.992188 133.550781 192.109375 134.015625 Z M 192.109375 134.015625 " fill-opacity="1" fill-rule="nonzero"/></g><g fill="#ff3131" fill-opacity="1"><g transform="translate(25.636492, 233.839605)"><g><path d="M 4.40625 -11.5625 C 4.925781 -11.5625 5.375 -11.507812 5.75 -11.40625 C 6.125 -11.300781 6.535156 -11.15625 6.984375 -10.96875 C 7.140625 -10.90625 7.285156 -10.847656 7.421875 -10.796875 C 7.566406 -10.742188 7.691406 -10.71875 7.796875 -10.71875 C 7.960938 -10.71875 8.097656 -10.789062 8.203125 -10.9375 C 8.316406 -11.082031 8.375 -11.289062 8.375 -11.5625 L 8.703125 -11.5625 L 8.703125 -7.90625 L 8.375 -7.90625 C 8.269531 -8.488281 8.035156 -9.007812 7.671875 -9.46875 C 7.304688 -9.925781 6.851562 -10.28125 6.3125 -10.53125 C 5.78125 -10.789062 5.207031 -10.921875 4.59375 -10.921875 C 3.925781 -10.921875 3.378906 -10.757812 2.953125 -10.4375 C 2.523438 -10.113281 2.3125 -9.707031 2.3125 -9.21875 C 2.3125 -8.851562 2.4375 -8.546875 2.6875 -8.296875 C 2.9375 -8.046875 3.25 -7.835938 3.625 -7.671875 C 4.007812 -7.503906 4.535156 -7.3125 5.203125 -7.09375 C 5.867188 -6.875 6.425781 -6.671875 6.875 -6.484375 C 7.332031 -6.296875 7.726562 -6.066406 8.0625 -5.796875 C 8.445312 -5.472656 8.765625 -5.09375 9.015625 -4.65625 C 9.265625 -4.21875 9.390625 -3.722656 9.390625 -3.171875 C 9.390625 -2.503906 9.207031 -1.910156 8.84375 -1.390625 C 8.476562 -0.878906 7.96875 -0.476562 7.3125 -0.1875 C 6.664062 0.09375 5.914062 0.234375 5.0625 0.234375 C 4.519531 0.234375 4.0625 0.1875 3.6875 0.09375 C 3.320312 0 2.945312 -0.125 2.5625 -0.28125 C 2.207031 -0.4375 1.941406 -0.515625 1.765625 -0.515625 C 1.566406 -0.515625 1.394531 -0.453125 1.25 -0.328125 C 1.101562 -0.203125 0.976562 -0.015625 0.875 0.234375 L 0.5625 0.234375 L 0.5625 -3.921875 L 0.875 -3.921875 C 1.070312 -2.816406 1.539062 -1.941406 2.28125 -1.296875 C 3.019531 -0.660156 3.914062 -0.34375 4.96875 -0.34375 C 5.757812 -0.34375 6.382812 -0.503906 6.84375 -0.828125 C 7.3125 -1.148438 7.546875 -1.585938 7.546875 -2.140625 C 7.546875 -2.566406 7.410156 -2.925781 7.140625 -3.21875 C 6.867188 -3.519531 6.53125 -3.765625 6.125 -3.953125 C 5.726562 -4.140625 5.191406 -4.347656 4.515625 -4.578125 C 3.671875 -4.867188 2.988281 -5.144531 2.46875 -5.40625 C 1.945312 -5.664062 1.5 -6.03125 1.125 -6.5 C 0.757812 -6.96875 0.578125 -7.554688 0.578125 -8.265625 C 0.578125 -8.890625 0.738281 -9.453125 1.0625 -9.953125 C 1.394531 -10.453125 1.851562 -10.84375 2.4375 -11.125 C 3.019531 -11.414062 3.675781 -11.5625 4.40625 -11.5625 Z M 4.40625 -11.5625 "/></g></g></g><g fill="#ff3131" fill-opacity="1"><g transform="translate(35.58622, 233.839605)"><g><path d="M 3.828125 -7.828125 C 4.492188 -7.828125 5.050781 -7.65625 5.5 -7.3125 C 5.957031 -6.96875 6.300781 -6.53125 6.53125 -6 C 6.769531 -5.46875 6.894531 -4.914062 6.90625 -4.34375 L 6.90625 -4.0625 L 2.5625 -4.0625 C 2.632812 -3.15625 2.875 -2.421875 3.28125 -1.859375 C 3.695312 -1.296875 4.210938 -1.015625 4.828125 -1.015625 C 5.222656 -1.015625 5.5625 -1.117188 5.84375 -1.328125 C 6.125 -1.546875 6.378906 -1.859375 6.609375 -2.265625 L 6.90625 -2.09375 C 6.53125 -1.300781 6.082031 -0.710938 5.5625 -0.328125 C 5.050781 0.046875 4.441406 0.234375 3.734375 0.234375 C 3.035156 0.234375 2.4375 0.0625 1.9375 -0.28125 C 1.4375 -0.632812 1.050781 -1.101562 0.78125 -1.6875 C 0.519531 -2.28125 0.390625 -2.945312 0.390625 -3.6875 C 0.390625 -4.425781 0.539062 -5.109375 0.84375 -5.734375 C 1.15625 -6.367188 1.578125 -6.875 2.109375 -7.25 C 2.640625 -7.632812 3.210938 -7.828125 3.828125 -7.828125 Z M 4.890625 -5.015625 C 4.890625 -5.796875 4.800781 -6.375 4.625 -6.75 C 4.457031 -7.125 4.191406 -7.3125 3.828125 -7.3125 C 3.429688 -7.3125 3.117188 -7.066406 2.890625 -6.578125 C 2.671875 -6.085938 2.5625 -5.523438 2.5625 -4.890625 L 2.5625 -4.609375 L 4.890625 -4.609375 Z M 4.890625 -5.015625 "/></g></g></g><g fill="#ff3131" fill-opacity="1"><g transform="translate(42.801422, 233.839605)"><g><path d="M 4.1875 -7.828125 C 5.125 -7.828125 5.8125 -7.632812 6.25 -7.25 C 6.695312 -6.863281 6.921875 -6.375 6.921875 -5.78125 L 6.921875 -1.71875 C 6.921875 -1.113281 7.070312 -0.8125 7.375 -0.8125 C 7.46875 -0.8125 7.539062 -0.832031 7.59375 -0.875 C 7.65625 -0.925781 7.726562 -1.015625 7.8125 -1.140625 L 7.953125 -0.984375 C 7.796875 -0.609375 7.550781 -0.3125 7.21875 -0.09375 C 6.894531 0.125 6.53125 0.234375 6.125 0.234375 C 5.707031 0.234375 5.367188 0.128906 5.109375 -0.078125 C 4.847656 -0.285156 4.695312 -0.59375 4.65625 -1 C 4.59375 -0.957031 4.492188 -0.882812 4.359375 -0.78125 C 3.972656 -0.457031 3.613281 -0.207031 3.28125 -0.03125 C 2.957031 0.144531 2.582031 0.234375 2.15625 0.234375 C 1.726562 0.234375 1.367188 0.0820312 1.078125 -0.21875 C 0.785156 -0.53125 0.640625 -0.90625 0.640625 -1.34375 C 0.640625 -1.914062 0.890625 -2.425781 1.390625 -2.875 C 1.890625 -3.332031 2.4375 -3.695312 3.03125 -3.96875 L 4.65625 -4.765625 L 4.65625 -6.265625 C 4.65625 -6.535156 4.570312 -6.765625 4.40625 -6.953125 C 4.238281 -7.148438 3.972656 -7.25 3.609375 -7.25 C 3.285156 -7.25 3.015625 -7.179688 2.796875 -7.046875 C 2.585938 -6.910156 2.484375 -6.753906 2.484375 -6.578125 C 2.484375 -6.503906 2.503906 -6.4375 2.546875 -6.375 C 2.585938 -6.3125 2.632812 -6.242188 2.6875 -6.171875 C 2.78125 -6.054688 2.851562 -5.941406 2.90625 -5.828125 C 2.96875 -5.722656 3 -5.597656 3 -5.453125 C 3 -5.191406 2.898438 -4.976562 2.703125 -4.8125 C 2.503906 -4.644531 2.242188 -4.5625 1.921875 -4.5625 C 1.578125 -4.5625 1.289062 -4.65625 1.0625 -4.84375 C 0.84375 -5.03125 0.734375 -5.273438 0.734375 -5.578125 C 0.734375 -5.972656 0.890625 -6.34375 1.203125 -6.6875 C 1.523438 -7.039062 1.945312 -7.316406 2.46875 -7.515625 C 3 -7.722656 3.570312 -7.828125 4.1875 -7.828125 Z M 2.875 -2.0625 C 2.875 -1.789062 2.945312 -1.570312 3.09375 -1.40625 C 3.25 -1.25 3.441406 -1.171875 3.671875 -1.171875 C 3.859375 -1.171875 4.023438 -1.203125 4.171875 -1.265625 C 4.316406 -1.328125 4.476562 -1.429688 4.65625 -1.578125 L 4.65625 -4.1875 C 3.46875 -3.582031 2.875 -2.875 2.875 -2.0625 Z M 2.875 -2.0625 "/></g></g></g><g fill="#ff3131" fill-opacity="1"><g transform="translate(51.03795, 233.839605)"><g><path d="M 5.109375 -7.828125 C 5.367188 -7.828125 5.582031 -7.722656 5.75 -7.515625 C 5.914062 -7.316406 6 -7.054688 6 -6.734375 C 6 -6.390625 5.914062 -6.113281 5.75 -5.90625 C 5.582031 -5.695312 5.359375 -5.59375 5.078125 -5.59375 C 4.941406 -5.59375 4.820312 -5.617188 4.71875 -5.671875 C 4.625 -5.734375 4.503906 -5.8125 4.359375 -5.90625 C 4.148438 -6.050781 4 -6.125 3.90625 -6.125 C 3.726562 -6.125 3.578125 -5.976562 3.453125 -5.6875 C 3.335938 -5.40625 3.28125 -5.082031 3.28125 -4.71875 L 3.28125 -1.296875 C 3.28125 -0.929688 3.347656 -0.671875 3.484375 -0.515625 C 3.628906 -0.367188 3.890625 -0.296875 4.265625 -0.296875 L 4.265625 0 L 0.1875 0 L 0.1875 -0.296875 C 0.738281 -0.296875 1.015625 -0.625 1.015625 -1.28125 L 1.015625 -6.359375 C 1.015625 -7.003906 0.738281 -7.332031 0.1875 -7.34375 L 0.1875 -7.640625 L 3.28125 -7.640625 L 3.28125 -6.28125 L 3.3125 -6.28125 C 3.820312 -7.3125 4.421875 -7.828125 5.109375 -7.828125 Z M 5.109375 -7.828125 "/></g></g></g><g fill="#ff3131" fill-opacity="1"><g transform="translate(57.034145, 233.839605)"><g><path d="M 4.15625 -7.828125 C 4.632812 -7.828125 5.078125 -7.738281 5.484375 -7.5625 C 5.890625 -7.382812 6.207031 -7.148438 6.4375 -6.859375 C 6.675781 -6.566406 6.796875 -6.242188 6.796875 -5.890625 C 6.796875 -5.609375 6.695312 -5.375 6.5 -5.1875 C 6.3125 -5 6.078125 -4.90625 5.796875 -4.90625 C 5.378906 -4.90625 5.054688 -5.085938 4.828125 -5.453125 C 4.734375 -5.585938 4.671875 -5.71875 4.640625 -5.84375 C 4.609375 -5.976562 4.582031 -6.140625 4.5625 -6.328125 C 4.539062 -6.515625 4.515625 -6.660156 4.484375 -6.765625 C 4.460938 -6.867188 4.410156 -6.957031 4.328125 -7.03125 C 4.191406 -7.175781 4.015625 -7.25 3.796875 -7.25 C 3.359375 -7.25 3.039062 -7.015625 2.84375 -6.546875 C 2.644531 -6.078125 2.546875 -5.515625 2.546875 -4.859375 C 2.546875 -4.328125 2.625 -3.769531 2.78125 -3.1875 C 2.945312 -2.601562 3.210938 -2.097656 3.578125 -1.671875 C 3.941406 -1.242188 4.398438 -1.03125 4.953125 -1.03125 C 5.304688 -1.03125 5.609375 -1.085938 5.859375 -1.203125 C 6.109375 -1.328125 6.40625 -1.566406 6.75 -1.921875 L 7.015625 -1.75 C 6.660156 -1.113281 6.21875 -0.625 5.6875 -0.28125 C 5.15625 0.0625 4.5625 0.234375 3.90625 0.234375 C 3.238281 0.234375 2.632812 0.0703125 2.09375 -0.25 C 1.5625 -0.582031 1.144531 -1.039062 0.84375 -1.625 C 0.539062 -2.21875 0.390625 -2.890625 0.390625 -3.640625 C 0.390625 -4.421875 0.554688 -5.128906 0.890625 -5.765625 C 1.222656 -6.410156 1.671875 -6.914062 2.234375 -7.28125 C 2.804688 -7.644531 3.445312 -7.828125 4.15625 -7.828125 Z M 4.15625 -7.828125 "/></g></g></g><g fill="#ff3131" fill-opacity="1"><g transform="translate(64.249347, 233.839605)"><g><path d="M 3.21875 -6.625 L 3.25 -6.625 C 3.84375 -7.425781 4.550781 -7.828125 5.375 -7.828125 C 6.082031 -7.828125 6.597656 -7.59375 6.921875 -7.125 C 7.253906 -6.664062 7.421875 -6.082031 7.421875 -5.375 L 7.421875 -1.15625 C 7.421875 -0.957031 7.472656 -0.773438 7.578125 -0.609375 C 7.691406 -0.453125 7.84375 -0.347656 8.03125 -0.296875 L 8.03125 0 L 4.484375 0 L 4.484375 -0.296875 C 4.734375 -0.359375 4.910156 -0.457031 5.015625 -0.59375 C 5.117188 -0.738281 5.171875 -0.988281 5.171875 -1.34375 L 5.171875 -5.734375 C 5.171875 -6.410156 4.9375 -6.75 4.46875 -6.75 C 4.269531 -6.75 4.070312 -6.675781 3.875 -6.53125 C 3.675781 -6.382812 3.457031 -6.140625 3.21875 -5.796875 L 3.21875 -1.328125 C 3.21875 -1.015625 3.269531 -0.773438 3.375 -0.609375 C 3.476562 -0.441406 3.648438 -0.335938 3.890625 -0.296875 L 3.890625 0 L 0.28125 0 L 0.28125 -0.296875 C 0.476562 -0.347656 0.617188 -0.410156 0.703125 -0.484375 C 0.796875 -0.566406 0.859375 -0.691406 0.890625 -0.859375 C 0.929688 -1.035156 0.953125 -1.296875 0.953125 -1.640625 L 0.953125 -10.046875 C 0.953125 -10.378906 0.890625 -10.613281 0.765625 -10.75 C 0.648438 -10.882812 0.488281 -10.972656 0.28125 -11.015625 L 0.28125 -11.3125 L 3.21875 -11.3125 Z M 3.21875 -6.625 "/></g></g></g><g fill="#ff3131" fill-opacity="1"><g transform="translate(72.485875, 233.839605)"><g/></g></g><g fill="#ff3131" fill-opacity="1"><g transform="translate(76.604139, 233.839605)"><g><path d="M 4.40625 -11.5625 C 4.925781 -11.5625 5.375 -11.507812 5.75 -11.40625 C 6.125 -11.300781 6.535156 -11.15625 6.984375 -10.96875 C 7.140625 -10.90625 7.285156 -10.847656 7.421875 -10.796875 C 7.566406 -10.742188 7.691406 -10.71875 7.796875 -10.71875 C 7.960938 -10.71875 8.097656 -10.789062 8.203125 -10.9375 C 8.316406 -11.082031 8.375 -11.289062 8.375 -11.5625 L 8.703125 -11.5625 L 8.703125 -7.90625 L 8.375 -7.90625 C 8.269531 -8.488281 8.035156 -9.007812 7.671875 -9.46875 C 7.304688 -9.925781 6.851562 -10.28125 6.3125 -10.53125 C 5.78125 -10.789062 5.207031 -10.921875 4.59375 -10.921875 C 3.925781 -10.921875 3.378906 -10.757812 2.953125 -10.4375 C 2.523438 -10.113281 2.3125 -9.707031 2.3125 -9.21875 C 2.3125 -8.851562 2.4375 -8.546875 2.6875 -8.296875 C 2.9375 -8.046875 3.25 -7.835938 3.625 -7.671875 C 4.007812 -7.503906 4.535156 -7.3125 5.203125 -7.09375 C 5.867188 -6.875 6.425781 -6.671875 6.875 -6.484375 C 7.332031 -6.296875 7.726562 -6.066406 8.0625 -5.796875 C 8.445312 -5.472656 8.765625 -5.09375 9.015625 -4.65625 C 9.265625 -4.21875 9.390625 -3.722656 9.390625 -3.171875 C 9.390625 -2.503906 9.207031 -1.910156 8.84375 -1.390625 C 8.476562 -0.878906 7.96875 -0.476562 7.3125 -0.1875 C 6.664062 0.09375 5.914062 0.234375 5.0625 0.234375 C 4.519531 0.234375 4.0625 0.1875 3.6875 0.09375 C 3.320312 0 2.945312 -0.125 2.5625 -0.28125 C 2.207031 -0.4375 1.941406 -0.515625 1.765625 -0.515625 C 1.566406 -0.515625 1.394531 -0.453125 1.25 -0.328125 C 1.101562 -0.203125 0.976562 -0.015625 0.875 0.234375 L 0.5625 0.234375 L 0.5625 -3.921875 L 0.875 -3.921875 C 1.070312 -2.816406 1.539062 -1.941406 2.28125 -1.296875 C 3.019531 -0.660156 3.914062 -0.34375 4.96875 -0.34375 C 5.757812 -0.34375 6.382812 -0.503906 6.84375 -0.828125 C 7.3125 -1.148438 7.546875 -1.585938 7.546875 -2.140625 C 7.546875 -2.566406 7.410156 -2.925781 7.140625 -3.21875 C 6.867188 -3.519531 6.53125 -3.765625 6.125 -3.953125 C 5.726562 -4.140625 5.191406 -4.347656 4.515625 -4.578125 C 3.671875 -4.867188 2.988281 -5.144531 2.46875 -5.40625 C 1.945312 -5.664062 1.5 -6.03125 1.125 -6.5 C 0.757812 -6.96875 0.578125 -7.554688 0.578125 -8.265625 C 0.578125 -8.890625 0.738281 -9.453125 1.0625 -9.953125 C 1.394531 -10.453125 1.851562 -10.84375 2.4375 -11.125 C 3.019531 -11.414062 3.675781 -11.5625 4.40625 -11.5625 Z M 4.40625 -11.5625 "/></g></g></g><g fill="#ff3131" fill-opacity="1"><g transform="translate(86.553867, 233.839605)"><g><path d="M 3.1875 -10.390625 L 3.46875 -10.390625 L 3.46875 -7.640625 L 5.21875 -7.640625 L 5.21875 -6.8125 L 3.46875 -6.8125 L 3.46875 -1.546875 C 3.46875 -1.335938 3.507812 -1.144531 3.59375 -0.96875 C 3.6875 -0.789062 3.84375 -0.703125 4.0625 -0.703125 C 4.4375 -0.703125 4.753906 -0.960938 5.015625 -1.484375 L 5.21875 -1.21875 C 4.78125 -0.25 4.082031 0.234375 3.125 0.234375 C 2.507812 0.234375 2.035156 0.0390625 1.703125 -0.34375 C 1.378906 -0.726562 1.21875 -1.195312 1.21875 -1.75 L 1.21875 -6.8125 L 0.28125 -6.8125 L 0.28125 -7.109375 C 0.8125 -7.484375 1.382812 -8.015625 2 -8.703125 C 2.613281 -9.398438 3.007812 -9.960938 3.1875 -10.390625 Z M 3.1875 -10.390625 "/></g></g></g><g fill="#ff3131" fill-opacity="1"><g transform="translate(92.039394, 233.839605)"><g><path d="M 4.078125 -7.828125 C 4.753906 -7.828125 5.367188 -7.664062 5.921875 -7.34375 C 6.472656 -7.03125 6.914062 -6.566406 7.25 -5.953125 C 7.582031 -5.347656 7.75 -4.617188 7.75 -3.765625 C 7.75 -2.867188 7.5625 -2.117188 7.1875 -1.515625 C 6.820312 -0.921875 6.359375 -0.476562 5.796875 -0.1875 C 5.242188 0.09375 4.695312 0.234375 4.15625 0.234375 C 3.550781 0.234375 2.960938 0.078125 2.390625 -0.234375 C 1.828125 -0.546875 1.367188 -1.003906 1.015625 -1.609375 C 0.660156 -2.222656 0.484375 -2.960938 0.484375 -3.828125 C 0.484375 -4.585938 0.632812 -5.269531 0.9375 -5.875 C 1.25 -6.476562 1.675781 -6.953125 2.21875 -7.296875 C 2.769531 -7.648438 3.390625 -7.828125 4.078125 -7.828125 Z M 2.84375 -4.15625 C 2.84375 -3.164062 2.875 -2.40625 2.9375 -1.875 C 3.007812 -1.34375 3.132812 -0.953125 3.3125 -0.703125 C 3.5 -0.460938 3.769531 -0.34375 4.125 -0.34375 C 4.4375 -0.34375 4.6875 -0.441406 4.875 -0.640625 C 5.0625 -0.835938 5.191406 -1.15625 5.265625 -1.59375 C 5.347656 -2.039062 5.390625 -2.648438 5.390625 -3.421875 C 5.390625 -4.410156 5.359375 -5.164062 5.296875 -5.6875 C 5.242188 -6.207031 5.125 -6.597656 4.9375 -6.859375 C 4.75 -7.117188 4.460938 -7.25 4.078125 -7.25 C 3.597656 -7.25 3.269531 -6.988281 3.09375 -6.46875 C 2.925781 -5.945312 2.84375 -5.175781 2.84375 -4.15625 Z M 2.84375 -4.15625 "/></g></g></g><g fill="#ff3131" fill-opacity="1"><g transform="translate(100.275922, 233.839605)"><g><path d="M 4.15625 -7.828125 C 4.632812 -7.828125 5.078125 -7.738281 5.484375 -7.5625 C 5.890625 -7.382812 6.207031 -7.148438 6.4375 -6.859375 C 6.675781 -6.566406 6.796875 -6.242188 6.796875 -5.890625 C 6.796875 -5.609375 6.695312 -5.375 6.5 -5.1875 C 6.3125 -5 6.078125 -4.90625 5.796875 -4.90625 C 5.378906 -4.90625 5.054688 -5.085938 4.828125 -5.453125 C 4.734375 -5.585938 4.671875 -5.71875 4.640625 -5.84375 C 4.609375 -5.976562 4.582031 -6.140625 4.5625 -6.328125 C 4.539062 -6.515625 4.515625 -6.660156 4.484375 -6.765625 C 4.460938 -6.867188 4.410156 -6.957031 4.328125 -7.03125 C 4.191406 -7.175781 4.015625 -7.25 3.796875 -7.25 C 3.359375 -7.25 3.039062 -7.015625 2.84375 -6.546875 C 2.644531 -6.078125 2.546875 -5.515625 2.546875 -4.859375 C 2.546875 -4.328125 2.625 -3.769531 2.78125 -3.1875 C 2.945312 -2.601562 3.210938 -2.097656 3.578125 -1.671875 C 3.941406 -1.242188 4.398438 -1.03125 4.953125 -1.03125 C 5.304688 -1.03125 5.609375 -1.085938 5.859375 -1.203125 C 6.109375 -1.328125 6.40625 -1.566406 6.75 -1.921875 L 7.015625 -1.75 C 6.660156 -1.113281 6.21875 -0.625 5.6875 -0.28125 C 5.15625 0.0625 4.5625 0.234375 3.90625 0.234375 C 3.238281 0.234375 2.632812 0.0703125 2.09375 -0.25 C 1.5625 -0.582031 1.144531 -1.039062 0.84375 -1.625 C 0.539062 -2.21875 0.390625 -2.890625 0.390625 -3.640625 C 0.390625 -4.421875 0.554688 -5.128906 0.890625 -5.765625 C 1.222656 -6.410156 1.671875 -6.914062 2.234375 -7.28125 C 2.804688 -7.644531 3.445312 -7.828125 4.15625 -7.828125 Z M 4.15625 -7.828125 "/></g></g></g><g fill="#ff3131" fill-opacity="1"><g transform="translate(107.491124, 233.839605)"><g><path d="M 3.484375 -3.78125 L 5.0625 -5.59375 C 5.34375 -5.925781 5.523438 -6.164062 5.609375 -6.3125 C 5.691406 -6.46875 5.734375 -6.617188 5.734375 -6.765625 C 5.734375 -6.972656 5.660156 -7.117188 5.515625 -7.203125 C 5.367188 -7.296875 5.148438 -7.34375 4.859375 -7.34375 L 4.859375 -7.640625 L 8.15625 -7.640625 L 8.15625 -7.34375 C 7.820312 -7.300781 7.53125 -7.207031 7.28125 -7.0625 C 7.03125 -6.914062 6.769531 -6.707031 6.5 -6.4375 C 6.238281 -6.164062 5.820312 -5.703125 5.25 -5.046875 L 7.296875 -1.90625 C 7.679688 -1.3125 7.984375 -0.894531 8.203125 -0.65625 C 8.429688 -0.425781 8.644531 -0.304688 8.84375 -0.296875 L 8.84375 0 L 5.0625 0 L 5.0625 -0.296875 C 5.226562 -0.316406 5.347656 -0.347656 5.421875 -0.390625 C 5.492188 -0.441406 5.53125 -0.515625 5.53125 -0.609375 C 5.53125 -0.703125 5.457031 -0.875 5.3125 -1.125 L 3.859375 -3.421875 L 3.484375 -3.015625 L 3.484375 -1.28125 C 3.484375 -0.90625 3.554688 -0.648438 3.703125 -0.515625 C 3.847656 -0.378906 4.082031 -0.304688 4.40625 -0.296875 L 4.40625 0 L 0.234375 0 L 0.234375 -0.296875 C 0.640625 -0.304688 0.90625 -0.378906 1.03125 -0.515625 C 1.164062 -0.648438 1.234375 -0.914062 1.234375 -1.3125 L 1.234375 -9.984375 C 1.234375 -10.367188 1.160156 -10.632812 1.015625 -10.78125 C 0.867188 -10.9375 0.609375 -11.015625 0.234375 -11.015625 L 0.234375 -11.3125 L 3.484375 -11.3125 Z M 3.484375 -3.78125 "/></g></g></g><g fill="#ff3131" fill-opacity="1"><g transform="translate(116.584257, 233.839605)"><g><path d="M 2.734375 -7.828125 C 3.003906 -7.828125 3.238281 -7.796875 3.4375 -7.734375 C 3.644531 -7.679688 3.894531 -7.601562 4.1875 -7.5 C 4.40625 -7.394531 4.554688 -7.34375 4.640625 -7.34375 C 4.773438 -7.34375 4.890625 -7.378906 4.984375 -7.453125 C 5.078125 -7.535156 5.175781 -7.660156 5.28125 -7.828125 L 5.46875 -7.828125 L 5.59375 -5.234375 L 5.40625 -5.234375 C 5.164062 -5.859375 4.816406 -6.347656 4.359375 -6.703125 C 3.898438 -7.066406 3.398438 -7.25 2.859375 -7.25 C 2.546875 -7.25 2.296875 -7.171875 2.109375 -7.015625 C 1.929688 -6.867188 1.84375 -6.679688 1.84375 -6.453125 C 1.84375 -6.171875 1.976562 -5.929688 2.25 -5.734375 C 2.519531 -5.535156 2.925781 -5.3125 3.46875 -5.0625 C 4.019531 -4.800781 4.460938 -4.5625 4.796875 -4.34375 C 5.140625 -4.125 5.4375 -3.84375 5.6875 -3.5 C 5.9375 -3.15625 6.0625 -2.734375 6.0625 -2.234375 C 6.0625 -1.773438 5.945312 -1.351562 5.71875 -0.96875 C 5.488281 -0.59375 5.171875 -0.296875 4.765625 -0.078125 C 4.359375 0.128906 3.90625 0.234375 3.40625 0.234375 C 3.101562 0.234375 2.828125 0.195312 2.578125 0.125 C 2.328125 0.0625 2.070312 -0.0195312 1.8125 -0.125 C 1.78125 -0.132812 1.695312 -0.164062 1.5625 -0.21875 C 1.425781 -0.269531 1.316406 -0.296875 1.234375 -0.296875 C 1.035156 -0.296875 0.863281 -0.125 0.71875 0.21875 L 0.578125 0.21875 L 0.390625 -2.5 L 0.578125 -2.5 C 0.859375 -1.8125 1.226562 -1.28125 1.6875 -0.90625 C 2.15625 -0.53125 2.664062 -0.34375 3.21875 -0.34375 C 3.550781 -0.34375 3.828125 -0.4375 4.046875 -0.625 C 4.273438 -0.8125 4.390625 -1.039062 4.390625 -1.3125 C 4.390625 -1.59375 4.304688 -1.8125 4.140625 -1.96875 C 3.972656 -2.125 3.707031 -2.300781 3.34375 -2.5 C 3.1875 -2.59375 3.039062 -2.664062 2.90625 -2.71875 C 2.78125 -2.78125 2.671875 -2.832031 2.578125 -2.875 C 2.078125 -3.125 1.675781 -3.34375 1.375 -3.53125 C 1.082031 -3.726562 0.828125 -3.984375 0.609375 -4.296875 C 0.398438 -4.617188 0.296875 -5.015625 0.296875 -5.484375 C 0.296875 -6.148438 0.519531 -6.707031 0.96875 -7.15625 C 1.425781 -7.601562 2.015625 -7.828125 2.734375 -7.828125 Z M 2.734375 -7.828125 "/></g></g></g><g fill="#ff3131" fill-opacity="1"><g transform="translate(122.92639, 233.839605)"><g/></g></g><g fill="#ff3131" fill-opacity="1"><g transform="translate(127.044654, 233.839605)"><g><path d="M 5.890625 -11.015625 C 5.484375 -11.003906 5.171875 -10.953125 4.953125 -10.859375 C 4.734375 -10.773438 4.582031 -10.632812 4.5 -10.4375 C 4.414062 -10.238281 4.375 -9.957031 4.375 -9.59375 L 4.375 -6.328125 L 9.15625 -6.328125 L 9.15625 -9.578125 C 9.15625 -9.984375 9.109375 -10.285156 9.015625 -10.484375 C 8.921875 -10.691406 8.769531 -10.828125 8.5625 -10.890625 C 8.363281 -10.960938 8.070312 -11.003906 7.6875 -11.015625 L 7.6875 -11.3125 L 13.390625 -11.3125 L 13.390625 -11.015625 C 12.941406 -11.003906 12.609375 -10.960938 12.390625 -10.890625 C 12.171875 -10.816406 12.015625 -10.679688 11.921875 -10.484375 C 11.835938 -10.285156 11.796875 -9.988281 11.796875 -9.59375 L 11.796875 -1.734375 C 11.796875 -1.316406 11.847656 -1.003906 11.953125 -0.796875 C 12.054688 -0.597656 12.207031 -0.46875 12.40625 -0.40625 C 12.601562 -0.34375 12.882812 -0.304688 13.25 -0.296875 L 13.25 0 L 7.6875 0 L 7.6875 -0.296875 C 8.09375 -0.304688 8.394531 -0.34375 8.59375 -0.40625 C 8.800781 -0.476562 8.945312 -0.613281 9.03125 -0.8125 C 9.113281 -1.007812 9.15625 -1.304688 9.15625 -1.703125 L 9.15625 -5.609375 L 4.375 -5.609375 L 4.375 -1.71875 C 4.375 -1.300781 4.425781 -0.992188 4.53125 -0.796875 C 4.632812 -0.597656 4.785156 -0.46875 4.984375 -0.40625 C 5.191406 -0.34375 5.492188 -0.304688 5.890625 -0.296875 L 5.890625 0 L 0.484375 0 L 0.484375 -0.296875 C 0.960938 -0.296875 1.289062 -0.398438 1.46875 -0.609375 C 1.65625 -0.828125 1.75 -1.203125 1.75 -1.734375 L 1.75 -9.578125 C 1.75 -9.984375 1.703125 -10.285156 1.609375 -10.484375 C 1.515625 -10.679688 1.359375 -10.816406 1.140625 -10.890625 C 0.921875 -10.960938 0.597656 -11.003906 0.171875 -11.015625 L 0.171875 -11.3125 L 5.890625 -11.3125 Z M 5.890625 -11.015625 "/></g></g></g><g fill="#ff3131" fill-opacity="1"><g transform="translate(140.601989, 233.839605)"><g><path d="M 3.828125 -7.828125 C 4.492188 -7.828125 5.050781 -7.65625 5.5 -7.3125 C 5.957031 -6.96875 6.300781 -6.53125 6.53125 -6 C 6.769531 -5.46875 6.894531 -4.914062 6.90625 -4.34375 L 6.90625 -4.0625 L 2.5625 -4.0625 C 2.632812 -3.15625 2.875 -2.421875 3.28125 -1.859375 C 3.695312 -1.296875 4.210938 -1.015625 4.828125 -1.015625 C 5.222656 -1.015625 5.5625 -1.117188 5.84375 -1.328125 C 6.125 -1.546875 6.378906 -1.859375 6.609375 -2.265625 L 6.90625 -2.09375 C 6.53125 -1.300781 6.082031 -0.710938 5.5625 -0.328125 C 5.050781 0.046875 4.441406 0.234375 3.734375 0.234375 C 3.035156 0.234375 2.4375 0.0625 1.9375 -0.28125 C 1.4375 -0.632812 1.050781 -1.101562 0.78125 -1.6875 C 0.519531 -2.28125 0.390625 -2.945312 0.390625 -3.6875 C 0.390625 -4.425781 0.539062 -5.109375 0.84375 -5.734375 C 1.15625 -6.367188 1.578125 -6.875 2.109375 -7.25 C 2.640625 -7.632812 3.210938 -7.828125 3.828125 -7.828125 Z M 4.890625 -5.015625 C 4.890625 -5.796875 4.800781 -6.375 4.625 -6.75 C 4.457031 -7.125 4.191406 -7.3125 3.828125 -7.3125 C 3.429688 -7.3125 3.117188 -7.066406 2.890625 -6.578125 C 2.671875 -6.085938 2.5625 -5.523438 2.5625 -4.890625 L 2.5625 -4.609375 L 4.890625 -4.609375 Z M 4.890625 -5.015625 "/></g></g></g><g fill="#ff3131" fill-opacity="1"><g transform="translate(147.817191, 233.839605)"><g><path d="M 5.109375 -7.828125 C 5.367188 -7.828125 5.582031 -7.722656 5.75 -7.515625 C 5.914062 -7.316406 6 -7.054688 6 -6.734375 C 6 -6.390625 5.914062 -6.113281 5.75 -5.90625 C 5.582031 -5.695312 5.359375 -5.59375 5.078125 -5.59375 C 4.941406 -5.59375 4.820312 -5.617188 4.71875 -5.671875 C 4.625 -5.734375 4.503906 -5.8125 4.359375 -5.90625 C 4.148438 -6.050781 4 -6.125 3.90625 -6.125 C 3.726562 -6.125 3.578125 -5.976562 3.453125 -5.6875 C 3.335938 -5.40625 3.28125 -5.082031 3.28125 -4.71875 L 3.28125 -1.296875 C 3.28125 -0.929688 3.347656 -0.671875 3.484375 -0.515625 C 3.628906 -0.367188 3.890625 -0.296875 4.265625 -0.296875 L 4.265625 0 L 0.1875 0 L 0.1875 -0.296875 C 0.738281 -0.296875 1.015625 -0.625 1.015625 -1.28125 L 1.015625 -6.359375 C 1.015625 -7.003906 0.738281 -7.332031 0.1875 -7.34375 L 0.1875 -7.640625 L 3.28125 -7.640625 L 3.28125 -6.28125 L 3.3125 -6.28125 C 3.820312 -7.3125 4.421875 -7.828125 5.109375 -7.828125 Z M 5.109375 -7.828125 "/></g></g></g><g fill="#ff3131" fill-opacity="1"><g transform="translate(153.813386, 233.839605)"><g><path d="M 3.828125 -7.828125 C 4.492188 -7.828125 5.050781 -7.65625 5.5 -7.3125 C 5.957031 -6.96875 6.300781 -6.53125 6.53125 -6 C 6.769531 -5.46875 6.894531 -4.914062 6.90625 -4.34375 L 6.90625 -4.0625 L 2.5625 -4.0625 C 2.632812 -3.15625 2.875 -2.421875 3.28125 -1.859375 C 3.695312 -1.296875 4.210938 -1.015625 4.828125 -1.015625 C 5.222656 -1.015625 5.5625 -1.117188 5.84375 -1.328125 C 6.125 -1.546875 6.378906 -1.859375 6.609375 -2.265625 L 6.90625 -2.09375 C 6.53125 -1.300781 6.082031 -0.710938 5.5625 -0.328125 C 5.050781 0.046875 4.441406 0.234375 3.734375 0.234375 C 3.035156 0.234375 2.4375 0.0625 1.9375 -0.28125 C 1.4375 -0.632812 1.050781 -1.101562 0.78125 -1.6875 C 0.519531 -2.28125 0.390625 -2.945312 0.390625 -3.6875 C 0.390625 -4.425781 0.539062 -5.109375 0.84375 -5.734375 C 1.15625 -6.367188 1.578125 -6.875 2.109375 -7.25 C 2.640625 -7.632812 3.210938 -7.828125 3.828125 -7.828125 Z M 4.890625 -5.015625 C 4.890625 -5.796875 4.800781 -6.375 4.625 -6.75 C 4.457031 -7.125 4.191406 -7.3125 3.828125 -7.3125 C 3.429688 -7.3125 3.117188 -7.066406 2.890625 -6.578125 C 2.671875 -6.085938 2.5625 -5.523438 2.5625 -4.890625 L 2.5625 -4.609375 L 4.890625 -4.609375 Z M 4.890625 -5.015625 "/></g></g></g><g fill="#ff3131" fill-opacity="1"><g transform="translate(161.028589, 233.839605)"><g><path d="M 2.234375 -2.421875 C 2.597656 -2.421875 2.910156 -2.289062 3.171875 -2.03125 C 3.429688 -1.769531 3.5625 -1.460938 3.5625 -1.109375 C 3.5625 -0.742188 3.429688 -0.425781 3.171875 -0.15625 C 2.910156 0.101562 2.597656 0.234375 2.234375 0.234375 C 1.878906 0.234375 1.566406 0.101562 1.296875 -0.15625 C 1.035156 -0.425781 0.90625 -0.742188 0.90625 -1.109375 C 0.90625 -1.460938 1.035156 -1.769531 1.296875 -2.03125 C 1.566406 -2.289062 1.878906 -2.421875 2.234375 -2.421875 Z M 2.234375 -2.421875 "/></g></g></g><g fill="#ff3131" fill-opacity="1"><g transform="translate(165.49279, 233.839605)"><g><path d="M 2.234375 -2.421875 C 2.597656 -2.421875 2.910156 -2.289062 3.171875 -2.03125 C 3.429688 -1.769531 3.5625 -1.460938 3.5625 -1.109375 C 3.5625 -0.742188 3.429688 -0.425781 3.171875 -0.15625 C 2.910156 0.101562 2.597656 0.234375 2.234375 0.234375 C 1.878906 0.234375 1.566406 0.101562 1.296875 -0.15625 C 1.035156 -0.425781 0.90625 -0.742188 0.90625 -1.109375 C 0.90625 -1.460938 1.035156 -1.769531 1.296875 -2.03125 C 1.566406 -2.289062 1.878906 -2.421875 2.234375 -2.421875 Z M 2.234375 -2.421875 "/></g></g></g><g fill="#ff3131" fill-opacity="1"><g transform="translate(169.956991, 233.839605)"><g><path d="M 2.234375 -2.421875 C 2.597656 -2.421875 2.910156 -2.289062 3.171875 -2.03125 C 3.429688 -1.769531 3.5625 -1.460938 3.5625 -1.109375 C 3.5625 -0.742188 3.429688 -0.425781 3.171875 -0.15625 C 2.910156 0.101562 2.597656 0.234375 2.234375 0.234375 C 1.878906 0.234375 1.566406 0.101562 1.296875 -0.15625 C 1.035156 -0.425781 0.90625 -0.742188 0.90625 -1.109375 C 0.90625 -1.460938 1.035156 -1.769531 1.296875 -2.03125 C 1.566406 -2.289062 1.878906 -2.421875 2.234375 -2.421875 Z M 2.234375 -2.421875 "/></g></g></g><g fill="#ff3131" fill-opacity="1"><g transform="translate(174.421193, 233.839605)"><g><path d="M 2.234375 -2.421875 C 2.597656 -2.421875 2.910156 -2.289062 3.171875 -2.03125 C 3.429688 -1.769531 3.5625 -1.460938 3.5625 -1.109375 C 3.5625 -0.742188 3.429688 -0.425781 3.171875 -0.15625 C 2.910156 0.101562 2.597656 0.234375 2.234375 0.234375 C 1.878906 0.234375 1.566406 0.101562 1.296875 -0.15625 C 1.035156 -0.425781 0.90625 -0.742188 0.90625 -1.109375 C 0.90625 -1.460938 1.035156 -1.769531 1.296875 -2.03125 C 1.566406 -2.289062 1.878906 -2.421875 2.234375 -2.421875 Z M 2.234375 -2.421875 "/></g></g></g><g fill="#ff3131" fill-opacity="1"><g transform="translate(178.885394, 233.839605)"><g><path d="M 2.234375 -2.421875 C 2.597656 -2.421875 2.910156 -2.289062 3.171875 -2.03125 C 3.429688 -1.769531 3.5625 -1.460938 3.5625 -1.109375 C 3.5625 -0.742188 3.429688 -0.425781 3.171875 -0.15625 C 2.910156 0.101562 2.597656 0.234375 2.234375 0.234375 C 1.878906 0.234375 1.566406 0.101562 1.296875 -0.15625 C 1.035156 -0.425781 0.90625 -0.742188 0.90625 -1.109375 C 0.90625 -1.460938 1.035156 -1.769531 1.296875 -2.03125 C 1.566406 -2.289062 1.878906 -2.421875 2.234375 -2.421875 Z M 2.234375 -2.421875 "/></g></g></g></g></g></svg>