<svg xmlns="http://www.w3.org/2000/svg" xmlns:xlink="http://www.w3.org/1999/xlink" width="2000" zoomAndPan="magnify" viewBox="0 0 1500 1499.999933" height="2000" preserveAspectRatio="xMidYMid meet" version="1.0"><defs><clipPath id="1349898548"><path d="M 16.75 112.070312 L 1483 112.070312 L 1483 1387.820312 L 16.75 1387.820312 Z M 16.75 112.070312 " clip-rule="nonzero"/></clipPath><clipPath id="4518a56ad6"><path d="M 266.695312 466 L 1224 466 L 1224 1309.382812 L 266.695312 1309.382812 Z M 266.695312 466 " clip-rule="nonzero"/></clipPath><clipPath id="67b6eee094"><path d="M 699 190.382812 L 899 190.382812 L 899 502 L 699 502 Z M 699 190.382812 " clip-rule="nonzero"/></clipPath></defs><g clip-path="url(#1349898548)"><path fill="#ffde59" d="M 753.0625 584.382812 C 427.964844 228.617188 458.636719 112.070312 16.992188 112.070312 C 213.277344 326.757812 403.429688 535.3125 599.714844 750 C 403.429688 964.6875 213.277344 1173.238281 16.992188 1387.925781 C 458.636719 1387.925781 427.964844 1271.382812 753.0625 915.613281 C 1072.027344 1271.382812 1041.359375 1387.925781 1483 1387.925781 C 1292.847656 1173.238281 1096.5625 964.6875 900.277344 750 C 1096.5625 535.3125 1292.847656 326.757812 1483 112.070312 C 1041.359375 112.070312 1072.027344 228.617188 753.0625 584.382812 Z M 753.0625 584.382812 " fill-opacity="1" fill-rule="evenodd"/></g><g clip-path="url(#4518a56ad6)"><path fill="#000000" d="M 446.109375 586.007812 L 446.109375 572.90625 C 414.199219 607.140625 266.695312 567.835938 266.695312 679.628906 C 272.820312 759.296875 319.738281 805.15625 381.867188 827.34375 C 296.703125 943.996094 400.039062 1003.589844 323.539062 1117.917969 C 327.34375 1132.289062 309.59375 1265.847656 306.84375 1280.429688 C 324.386719 1286.347656 350.167969 1296.914062 363.058594 1310.226562 C 371.933594 1303.464844 376.371094 1292.476562 374.679688 1281.484375 C 372.992188 1270.496094 365.59375 1261.199219 355.238281 1257.394531 C 355.449219 1232.882812 414.621094 1124.46875 414.832031 1117.496094 C 426.035156 1110.945312 436.390625 1104.605469 446.109375 1098.265625 C 491.332031 1063.609375 521.554688 1039.726562 536.769531 1026.414062 C 540.363281 1022.820312 543.742188 1019.441406 547.125 1016.269531 C 602.070312 961.539062 625.949219 928.148438 774.933594 924.34375 C 750.421875 913.777344 706.253906 892.433594 696.53125 883.769531 C 665.46875 855.664062 666.3125 806.847656 684.488281 751.476562 C 672.230469 802.621094 670.117188 858.621094 702.660156 877.21875 C 731.613281 893.703125 745.773438 898.5625 799.238281 920.75 C 795.011719 942.519531 796.066406 999.152344 794.375 1021.34375 C 787.402344 1014.792969 777.683594 1012.46875 764.789062 1014.15625 C 745.984375 1030.21875 737.953125 1055.578125 744.503906 1079.667969 C 765.003906 1072.0625 788.460938 1067.410156 814.875 1065.722656 C 821.214844 1056 839.390625 997.886719 855.027344 944.632812 L 855.027344 1015.214844 C 852.070312 1010.988281 854.394531 1009.71875 843.828125 1011.199219 C 837.488281 1032.964844 836.851562 1033.386719 827.132812 1062.339844 C 835.164062 1064.03125 843.191406 1064.242188 855.238281 1063.820312 L 887.148438 1061.917969 C 874.890625 1004.015625 888.839844 943.785156 928.992188 880.808594 C 943.785156 909.128906 961.535156 924.976562 978.652344 931.953125 C 1059.167969 964.917969 1036.558594 869.398438 1052.195312 823.117188 C 1058.113281 805.789062 1065.71875 786.769531 1075.441406 765.847656 C 1099.109375 780.007812 1129.542969 774.9375 1147.292969 753.804688 C 1131.230469 739.222656 1113.691406 726.542969 1094.671875 716.1875 C 1133.132812 728.230469 1169.90625 715.976562 1194.207031 691.460938 C 1221.679688 663.988281 1233.300781 620.878906 1214.070312 579.667969 C 1213.648438 601.226562 1206.042969 620.246094 1194.207031 635.25 C 1167.15625 669.273438 1117.074219 682.585938 1074.808594 657.859375 C 1071.003906 672.230469 1074.171875 687.65625 1083.050781 699.492188 C 1069.523438 686.179688 1064.453125 666.734375 1069.734375 648.984375 C 1025.144531 571.003906 954.5625 473.160156 855.238281 466.820312 C 855.238281 466.820312 855.027344 466.820312 855.027344 466.820312 C 846.785156 466.1875 838.332031 466.398438 829.878906 467.03125 C 825.441406 467.453125 821.003906 468.089844 816.566406 468.722656 L 816.566406 561.496094 L 781.273438 587.277344 L 781.273438 478.234375 C 754.4375 488.164062 726.964844 504.226562 699.066406 526.625 L 699.066406 628.0625 L 663.777344 653.84375 L 663.777344 560.648438 C 634.402344 590.449219 606.929688 618.765625 581.570312 644.757812 L 581.570312 725.695312 L 546.277344 762.042969 L 546.277344 680.894531 C 543.53125 683.644531 540.363281 686.601562 536.769531 690.195312 C 518.382812 707.523438 488.164062 734.574219 446.109375 770.921875 C 426.878906 784.65625 409.761719 793.957031 394.125 797.335938 C 335.796875 791.417969 285.925781 739.222656 283.175781 687.023438 C 277.683594 577.34375 402.367188 617.496094 446.109375 586.007812 " fill-opacity="1" fill-rule="evenodd"/></g><path fill="#d81c36" d="M 634.402344 387.363281 L 634.402344 325.867188 L 610.945312 325.867188 L 610.945312 387.363281 L 581.570312 387.363281 L 581.570312 616.230469 C 608.832031 588.121094 636.09375 560.015625 663.777344 532.332031 L 663.777344 387.363281 Z M 546.277344 652.15625 L 546.277344 450.125 L 516.90625 450.125 L 516.90625 387.152344 L 493.445312 387.152344 L 493.445312 450.125 L 464.285156 450.125 C 464.285156 542.6875 464.285156 632.078125 464.285156 728.65625 C 471.890625 721.890625 479.710938 715.128906 487.320312 708.15625 C 499.363281 697.378906 511.621094 686.390625 523.246094 675.402344 C 528.738281 670.117188 534.65625 664.621094 539.726562 658.917969 L 540.152344 658.496094 L 540.574219 658.070312 C 542.476562 656.167969 544.378906 654.054688 546.277344 652.15625 Z M 546.277344 652.15625 " fill-opacity="1" fill-rule="evenodd"/><g clip-path="url(#67b6eee094)"><path fill="#2fac5c" d="M 867.496094 261.832031 L 867.496094 189.769531 L 844.039062 189.769531 L 844.039062 261.832031 L 816.355469 261.832031 L 816.355469 448.433594 C 820.160156 447.800781 824.171875 447.378906 827.976562 446.957031 C 837.277344 446.109375 846.574219 446.109375 855.871094 446.746094 L 856.085938 446.746094 C 870.453125 447.589844 884.613281 450.125 898.136719 454.140625 L 898.136719 261.832031 Z M 699.066406 324.597656 L 699.066406 501.480469 C 724.214844 482.882812 751.6875 466.820312 781.273438 457.101562 L 781.273438 324.597656 L 752.746094 324.597656 L 752.746094 254.4375 L 729.289062 254.4375 L 729.289062 324.808594 L 699.066406 324.808594 Z M 699.066406 324.597656 " fill-opacity="1" fill-rule="evenodd"/></g></svg>